<svg id="Layer_1" xmlns="http://www.w3.org/2000/svg" xmlns:xlink="http://www.w3.org/1999/xlink" viewBox="0 0 564.5 564.5"><defs><path id="SVGID_1_" d="M0 282.3c0 155.9 126.4 282.3 282.3 282.3s282.3-126.4 282.3-282.3C564.5 126.4 438.2 0 282.3 0S0 126.4 0 282.3"/></defs><clipPath id="SVGID_2_"><use xlink:href="#SVGID_1_" overflow="visible"/></clipPath><path clip-path="url(#SVGID_2_)" fill="#B2B2B2" d="M330.4 173.5s.6.3 1.5 1c5.3 3.6 22.3 16.8 21.3 38.1-1.2 25.1-21.9 15.1-21.9 15.1"/><path clip-path="url(#SVGID_2_)" fill="#FCDBC5" d="M306.6 323.5l-54.2-17-1.4 52 1.3 16 34.1 30.6 19.3-34.3c0 .1-.5-47.2.9-47.3"/><path clip-path="url(#SVGID_2_)" fill="#FCDBC5" d="M331.4 180.7l-102.5 28.6s9.6 63.7-.3 59.2c-9.8-4.5-20.3 6-16.5 15.4 3.8 9.4 13.5 13.9 19.5 16.1 3.6 1.3 19 4.7 19 4.7l5.4 12.4 56 8.6c1.4-.1 39.9-13.5 39.4-59.4-.6-43.1-20-85.6-20-85.6"/><path clip-path="url(#SVGID_2_)" fill="none" stroke="#000" stroke-width="2" stroke-linecap="round" stroke-linejoin="round" d="M288.7 289.5s7.3 5.7 25.4 2.1"/><path clip-path="url(#SVGID_2_)" fill="#8E9DDB" d="M242.2 350.4l-15.1 5.2c-70.3 15.3-74.7 83.3-98.4 172.2 0 0 17.4 45.9 154.2 46.3 0 0 88 5 126.8-34.3 0 0-12-88.6-27.4-133.1-13.7-39.6-48.8-50.9-74.3-54.4l-2.1-.7-9.2 23.3-13.7 7.5-14.3 1.8-26.5-33.8z"/><path clip-path="url(#SVGID_2_)" fill="#6A73D5" d="M276.8 419.1l-19 77.2 37.3 24.3 17.8-25.6-25.2-75.9zM273.1 383h21.5l3.7 10-11.2 17.4h-9.6l-12.4-18.3z"/><path clip-path="url(#SVGID_2_)" fill="#2B47B3" d="M353.6 363.3s13 46.4 21.3 111.1c2.6 20.3 7.5 81.6 7.5 81.6s-31.8 12.1-51.4 14.4c-26 3-68.6 4.8-68.6 4.8l15.1-73.4s30-17.7 42.7-67.2c8.6-33.6 2.5-81.6 2.5-81.6l30.9 10.3z"/><path clip-path="url(#SVGID_2_)" fill="#2B47B3" d="M197.9 364s10.9 22.8-1.6 74c-5 20.6-21.9 35.9-21.9 35.9l-12.2 82s36.6 12.1 56.2 14.4c26 3 68.6 4.8 68.6 4.8l6.9-73.4s-32.7-25.4-51.8-67.9c-9.5-21.1-11.3-81.6-11.3-81.6L197.9 364z"/><path clip-path="url(#SVGID_2_)" fill="none" stroke="#322" stroke-width="1.371" stroke-miterlimit="10" d="M287.1 575.2l6.9-73.4s-54-44.9-58.6-90.7"/><path clip-path="url(#SVGID_2_)" fill="#8E9DDB" d="M251.4 340.7s7.3 24.9 31.7 41.8l-34 28.6s-10.8-26.7-8.7-59.2l11-11.2zM305.6 343.9s-1.8 14.9-22.5 38.6l29.1 27.2s8.2-18.1.5-56.4l-7.1-9.4z"/><path clip-path="url(#SVGID_2_)" fill="#3E61CB" d="M277.5 410.4h9.6l.6 8.7h-10.9z"/><path clip-path="url(#SVGID_2_)" fill="#C4C4C4" d="M306.7 296.8l-9.2.4-5.8 12.6-4.7-2.5-9.3-11.9-12 .3-19.7-14.5-.3-5.8-4.6-3.9-4.8-43-12 .6s9.3 58.9 14.2 67.3c4.9 8.4 27.2 43.4 61.2 43.3 35.8-.1 56.3-55.1 51-73.3 0 0 .6 11.7-5.2 18.5-2.4 2.8-15.4 9.2-15.4 9.2l-7.2.3-7.6 13.7-3.4.8-5.2-12.1z"/><path clip-path="url(#SVGID_2_)" fill="#B2B2B2" d="M232 268.2l-8.5.6s-25.8-51.6-12-71.5 56.3-49.4 87.4-39.2c31 10.2 34.7 19.3 34.7 19.3s-8.9 17.2-38.1 25.1c-29.1 7.9-34.4 23.9-56 27.7-18.4 3.4-7.5 38-7.5 38M297.5 293.8l-5.8 13.3s-4.6 18.6 9.3 36c0 0 16.4-20.2 10.9-36.9l-5.2-12.1-9.2-.3zM300.2 272.3l.7 15.1s-16.6 16.9-40.4 12.5l-3.9-4.3s11.3-9.1 18.5-15c9.5-7.5 25.1-8.3 25.1-8.3"/><path clip-path="url(#SVGID_2_)" fill="#B2B2B2" d="M300.2 272.3l.7 15s17.1 15.4 38.9 8.8l3.2-4.6s-11.4-8-18.7-13.2c-9.5-6.7-24.1-6-24.1-6"/><path clip-path="url(#SVGID_2_)" fill="none" stroke="#6A73D5" stroke-width="1.371" stroke-linecap="round" stroke-linejoin="round" stroke-miterlimit="10" d="M240.5 351.9s-1.1 35 8.7 59.2l34-28.6 29.1 27.2s7.8-30.3.5-56.4"/><path clip-path="url(#SVGID_2_)" fill="none" stroke="#322" stroke-width="1.371" stroke-miterlimit="10" d="M368.6 433s11 56.4 13.8 122.9M320.3 475.8l39.4-2.5M174.5 473.9s21.9-15.5 27-64.2"/><g opacity=".5" clip-path="url(#SVGID_2_)"><defs><path id="SVGID_3_" d="M250.1 237.7h43.8v43.8h-43.8z"/></defs><clipPath id="SVGID_4_"><use xlink:href="#SVGID_3_" overflow="visible"/></clipPath><path clip-path="url(#SVGID_4_)" fill="#FFF" d="M250.1 261.4c-1-11.9 7.7-22.6 20-23.6 11.9-1 22.6 7.7 23.6 20 1 11.9-7.7 22.6-20 23.6-12.3.6-22.6-8.1-23.6-20"/></g><g opacity=".5" clip-path="url(#SVGID_2_)"><defs><path id="SVGID_5_" d="M255 241.9h37.6v39.3H255z"/></defs><clipPath id="SVGID_6_"><use xlink:href="#SVGID_5_" overflow="visible"/></clipPath><path clip-path="url(#SVGID_6_)" fill="#FFF" d="M269.9 281.3l22.6-27.2c-1.4-5.1-4.6-9.7-9.1-12.2l-28.4 32c3.7 4 9.2 6.9 14.9 7.4"/></g><g opacity=".5" clip-path="url(#SVGID_2_)"><defs><path id="SVGID_7_" d="M309 237.7h43.8v43.8H309z"/></defs><clipPath id="SVGID_8_"><use xlink:href="#SVGID_7_" overflow="visible"/></clipPath><path clip-path="url(#SVGID_8_)" fill="#FFF" d="M309.1 261.4c-1-11.9 7.7-22.6 20-23.6 11.9-1 22.6 7.7 23.6 20 1 11.9-7.7 22.6-20 23.6-12.3.6-22.6-8.1-23.6-20"/></g><g opacity=".5" clip-path="url(#SVGID_2_)"><defs><path id="SVGID_9_" d="M314 241.9h37.6v39.3H314z"/></defs><clipPath id="SVGID_10_"><use xlink:href="#SVGID_9_" overflow="visible"/></clipPath><path clip-path="url(#SVGID_10_)" fill="#FFF" d="M328.9 281.3l22.6-27.2c-1.4-5.1-4.6-9.7-9.1-12.2l-28.4 32c3.6 4 9.1 6.9 14.9 7.4"/></g><path clip-path="url(#SVGID_2_)" fill="none" stroke="#000" stroke-width="2" stroke-linecap="round" stroke-linejoin="round" d="M299.8 249.8s8.7 16.8 14.9 22.5l-14.9.4M250.1 261.4l-22 3.2"/><g opacity=".8" clip-path="url(#SVGID_2_)"><defs><path id="SVGID_11_" d="M270 259.8h5.7v5.7H270z"/></defs><clipPath id="SVGID_12_"><use xlink:href="#SVGID_11_" overflow="visible"/></clipPath><path clip-path="url(#SVGID_12_)" d="M270 262.8c-.1-1.4 1.2-3 2.6-3.1 1.4-.1 3 1.2 3.1 2.6.1 1.4-1.2 3.2-2.6 3.1-1.6-.1-3-1.1-3.1-2.6"/></g><g opacity=".8" clip-path="url(#SVGID_2_)"><defs><path id="SVGID_13_" d="M325.3 256.4h5.7v5.7h-5.7z"/></defs><clipPath id="SVGID_14_"><use xlink:href="#SVGID_13_" overflow="visible"/></clipPath><path clip-path="url(#SVGID_14_)" d="M325.3 259.5c-.1-1.4 1.2-3 2.6-3.1 1.4-.1 3 1.2 3.1 2.6.1 1.4-1.2 3.2-2.6 3.1-1.5-.1-3-1.2-3.1-2.6"/></g></svg>