<?xml version="1.0" encoding="utf-8"?>
<!-- Generator: Adobe Illustrator 26.5.0, SVG Export Plug-In . SVG Version: 6.00 Build 0)  -->
<svg version="1.1" id="Calque_1" xmlns="http://www.w3.org/2000/svg" xmlns:xlink="http://www.w3.org/1999/xlink" x="0px" y="0px"
	 viewBox="0 0 1920 1043.24" style="enable-background:new 0 0 1920 1043.24;" xml:space="preserve">
<style type="text/css">
	
		.st0{clip-path:url(#SVGID_00000096740869615861537880000005909908865182409114_);fill-rule:evenodd;clip-rule:evenodd;fill:#FFFFFF;}
	.st1{clip-path:url(#SVGID_00000096740869615861537880000005909908865182409114_);}
	
		.st2{clip-path:url(#SVGID_00000018946252987638041630000018200848339383637668_);fill:url(#SVGID_00000171717596889657264040000000205443643556388249_);}
	.st3{opacity:0.25;clip-path:url(#SVGID_00000018946252987638041630000018200848339383637668_);}
	.st4{fill:url(#SVGID_00000170257555044502467260000013345481257972322237_);}
	.st5{opacity:0.37;fill:#FFFFFF;}
	.st6{opacity:0.44;clip-path:url(#SVGID_00000018946252987638041630000018200848339383637668_);fill:#D6E3E5;}
	
		.st7{clip-path:url(#SVGID_00000018946252987638041630000018200848339383637668_);fill:url(#SVGID_00000130622486127069215780000004605175638229582750_);}
	
		.st8{clip-path:url(#SVGID_00000018946252987638041630000018200848339383637668_);fill:url(#SVGID_00000089539524236017269770000011701686066190013105_);}
	
		.st9{clip-path:url(#SVGID_00000018946252987638041630000018200848339383637668_);fill:url(#SVGID_00000150782328509346330860000015087094572452164019_);}
	
		.st10{clip-path:url(#SVGID_00000018946252987638041630000018200848339383637668_);fill:url(#SVGID_00000102535470979683507200000009378905725413522347_);}
	
		.st11{clip-path:url(#SVGID_00000018946252987638041630000018200848339383637668_);fill:url(#SVGID_00000022533260887908942260000002464019427870028478_);}
	.st12{opacity:0.8;clip-path:url(#SVGID_00000018946252987638041630000018200848339383637668_);fill:#FFFFFF;}
	.st13{clip-path:url(#SVGID_00000018946252987638041630000018200848339383637668_);}
	.st14{fill:url(#SVGID_00000070838486709902366560000005403348012871664055_);}
	.st15{opacity:0.83;fill:#968350;}
	
		.st16{opacity:0.66;clip-path:url(#SVGID_00000018946252987638041630000018200848339383637668_);fill:url(#SVGID_00000077321001761564337160000004400538513404534409_);}
	.st17{clip-path:url(#SVGID_00000018946252987638041630000018200848339383637668_);fill:#583F3D;}
	.st18{clip-path:url(#SVGID_00000018946252987638041630000018200848339383637668_);fill:#808754;}
	.st19{fill:#80563A;}
	.st20{fill:#5C4E3D;}
	.st21{fill:#55492B;}
	.st22{fill:#473D34;}
	
		.st23{clip-path:url(#SVGID_00000018946252987638041630000018200848339383637668_);fill:url(#SVGID_00000097481021034064562290000008462549043423602364_);}
	.st24{opacity:0.78;clip-path:url(#SVGID_00000018946252987638041630000018200848339383637668_);fill:#232221;}
	.st25{clip-path:url(#SVGID_00000018946252987638041630000018200848339383637668_);fill:#624C41;}
	.st26{clip-path:url(#SVGID_00000018946252987638041630000018200848339383637668_);fill:#BEA37C;}
	.st27{clip-path:url(#SVGID_00000018946252987638041630000018200848339383637668_);fill:#5C404C;}
	.st28{clip-path:url(#SVGID_00000018946252987638041630000018200848339383637668_);fill:#6C384A;}
	.st29{clip-path:url(#SVGID_00000018946252987638041630000018200848339383637668_);fill:#C8767D;}
	.st30{clip-path:url(#SVGID_00000018946252987638041630000018200848339383637668_);fill:#BFD4DC;}
	.st31{clip-path:url(#SVGID_00000018946252987638041630000018200848339383637668_);fill:#453037;}
	
		.st32{opacity:0.65;clip-path:url(#SVGID_00000018946252987638041630000018200848339383637668_);fill:url(#SVGID_00000017481575376386826560000009896615290472506035_);}
	.st33{clip-path:url(#SVGID_00000018946252987638041630000018200848339383637668_);fill:#F8F5EB;}
	.st34{clip-path:url(#SVGID_00000018946252987638041630000018200848339383637668_);fill:#CBBFCE;}
	
		.st35{opacity:0.44;clip-path:url(#SVGID_00000018946252987638041630000018200848339383637668_);fill:url(#SVGID_00000093154974080588758210000013315802372216903090_);}
	
		.st36{clip-path:url(#SVGID_00000018946252987638041630000018200848339383637668_);fill:url(#SVGID_00000103242315550077347190000004580291752205422514_);}
	
		.st37{clip-path:url(#SVGID_00000018946252987638041630000018200848339383637668_);fill:url(#SVGID_00000146486460057921810390000003490284024456002980_);}
	
		.st38{clip-path:url(#SVGID_00000018946252987638041630000018200848339383637668_);fill:url(#SVGID_00000024001835344903164170000009756569571019013556_);}
	
		.st39{clip-path:url(#SVGID_00000018946252987638041630000018200848339383637668_);fill:url(#SVGID_00000155132199942557043490000003176633842800769964_);}
	
		.st40{clip-path:url(#SVGID_00000018946252987638041630000018200848339383637668_);fill:url(#SVGID_00000176746438211011986910000010224758908177647791_);}
	.st41{opacity:0.55;clip-path:url(#SVGID_00000018946252987638041630000018200848339383637668_);fill:#232221;}
	
		.st42{opacity:0.66;clip-path:url(#SVGID_00000018946252987638041630000018200848339383637668_);fill:url(#SVGID_00000080167957958219451050000012274206023706062217_);}
	
		.st43{opacity:0.66;clip-path:url(#SVGID_00000018946252987638041630000018200848339383637668_);fill:url(#SVGID_00000162338229939581798540000000792942648986154405_);}
	
		.st44{opacity:0.66;clip-path:url(#SVGID_00000018946252987638041630000018200848339383637668_);fill:url(#SVGID_00000013900273769910164430000004854114782919801217_);}
	
		.st45{opacity:0.66;clip-path:url(#SVGID_00000018946252987638041630000018200848339383637668_);fill:url(#SVGID_00000074415746124464508570000000697788065907979690_);}
	
		.st46{clip-path:url(#SVGID_00000018946252987638041630000018200848339383637668_);fill:url(#SVGID_00000116205292204834972740000013814662968082567835_);}
	
		.st47{opacity:0.66;clip-path:url(#SVGID_00000018946252987638041630000018200848339383637668_);fill:url(#SVGID_00000018209278720949147770000004084292276255747726_);}
	
		.st48{clip-path:url(#SVGID_00000018946252987638041630000018200848339383637668_);fill:url(#SVGID_00000122696538455991292600000018347841790256178833_);}
	
		.st49{opacity:0.66;clip-path:url(#SVGID_00000018946252987638041630000018200848339383637668_);fill:url(#SVGID_00000106121196093699126320000002409950676729501860_);}
	
		.st50{clip-path:url(#SVGID_00000018946252987638041630000018200848339383637668_);fill:url(#SVGID_00000043433602882135331840000013387538661295418786_);}
	
		.st51{opacity:0.66;clip-path:url(#SVGID_00000018946252987638041630000018200848339383637668_);fill:url(#SVGID_00000173858560279469360080000011081876662143660725_);}
	.st52{clip-path:url(#SVGID_00000096740869615861537880000005909908865182409114_);fill:#FFFFFF;}
	.st53{fill:#FFFFFF;}
	.st54{opacity:0.8;clip-path:url(#SVGID_00000096740869615861537880000005909908865182409114_);fill:#D4E2E2;}
	.st55{opacity:0.4;clip-path:url(#SVGID_00000096740869615861537880000005909908865182409114_);fill:#D4E2E2;}
	.st56{clip-path:url(#SVGID_00000096740869615861537880000005909908865182409114_);fill:#453037;}
	.st57{fill:url(#SVGID_00000162318223827295683910000017134238829224506263_);}
	.st58{fill:url(#SVGID_00000025430477333350879400000007157136127126102146_);}
</style>
<g>
	<defs>
		<polyline id="SVGID_1_" points="1920,5 1920,1043.24 0,1043.24 0,0 1915,0 		"/>
	</defs>
	<clipPath id="SVGID_00000114792326821764069510000009728386279622701203_">
		<use xlink:href="#SVGID_1_"  style="overflow:visible;"/>
	</clipPath>
	
		<rect style="clip-path:url(#SVGID_00000114792326821764069510000009728386279622701203_);fill-rule:evenodd;clip-rule:evenodd;fill:#FFFFFF;" width="1920" height="1043.24"/>
	<g style="clip-path:url(#SVGID_00000114792326821764069510000009728386279622701203_);">
		<g>
			<defs>
				
					<rect id="SVGID_00000002352199195670842050000012961536866757387161_" x="-28.75" y="-73.17" transform="matrix(-1 -1.224647e-16 1.224647e-16 -1 1898.7546 1015.9073)" width="1956.25" height="1162.26"/>
			</defs>
			<clipPath id="SVGID_00000148662680332556570600000007318741748917329551_">
				<use xlink:href="#SVGID_00000002352199195670842050000012961536866757387161_"  style="overflow:visible;"/>
			</clipPath>
			
				<linearGradient id="SVGID_00000015323674434563574590000009809754841695546297_" gradientUnits="userSpaceOnUse" x1="-7207.4072" y1="135.5826" x2="-7207.4072" y2="856.3011" gradientTransform="matrix(-1 0 0 1 -6070.3262 0)">
				<stop  offset="0" style="stop-color:#8BBFDF"/>
				<stop  offset="1" style="stop-color:#EAF0E9"/>
			</linearGradient>
			
				<polygon style="clip-path:url(#SVGID_00000148662680332556570600000007318741748917329551_);fill:url(#SVGID_00000015323674434563574590000009809754841695546297_);" points="
				346.66,856.3 1927.5,856.3 1927.5,135.58 346.66,135.58 			"/>
			<g style="opacity:0.25;clip-path:url(#SVGID_00000148662680332556570600000007318741748917329551_);">
				
					<linearGradient id="SVGID_00000096037362244302014040000017305148734018118792_" gradientUnits="userSpaceOnUse" x1="-7394.2661" y1="-25.2989" x2="-7394.2661" y2="1124.7316" gradientTransform="matrix(-1 0 0 1 -6070.3262 0)">
					<stop  offset="0.0251" style="stop-color:#8BBCD0"/>
					<stop  offset="1" style="stop-color:#EAF0E9"/>
				</linearGradient>
				
					<rect x="508.57" y="-25.3" style="fill:url(#SVGID_00000096037362244302014040000017305148734018118792_);" width="1630.74" height="1150.03"/>
				<rect x="508.57" y="-25.3" class="st5" width="1630.74" height="1150.03"/>
			</g>
			<path style="opacity:0.44;clip-path:url(#SVGID_00000148662680332556570600000007318741748917329551_);fill:#D6E3E5;" d="
				M1941.31,373.57c-13.38,1.65-1599.3-107.61-1599.3-107.61v27.49L1927.5,442.76L1941.31,373.57z"/>
			
				<polygon style="opacity:0.44;clip-path:url(#SVGID_00000148662680332556570600000007318741748917329551_);fill:#D6E3E5;" points="
				350.2,343.78 1927.5,452.82 1927.5,493.25 350.2,533.79 			"/>
			
				<linearGradient id="SVGID_00000069395874708942473640000014777285083334603406_" gradientUnits="userSpaceOnUse" x1="-6976.8906" y1="954.6539" x2="-6976.8906" y2="656.5153" gradientTransform="matrix(-1 0 0 1 -6070.3262 0)">
				<stop  offset="0" style="stop-color:#D9D2A0"/>
				<stop  offset="1" style="stop-color:#EFE3B2"/>
			</linearGradient>
			
				<path style="clip-path:url(#SVGID_00000148662680332556570600000007318741748917329551_);fill:url(#SVGID_00000069395874708942473640000014777285083334603406_);" d="
				M590.34,710.66c272.23-86.52,500.01-53.18,935.96,55.23c12.57,3.13-244.51,10.81-244.45,22.72
				c0.09,18.26-20.33,12.51-32.31,20.93c0,0-206.28,145.12-206.28,145.12c-252.28-31.61-504.56-63.27-756.88-94.58
				c6.89-62.2,13.78-124.39,20.67-186.59C313.35,616.68,555.78,721.64,590.34,710.66z"/>
			
				<linearGradient id="SVGID_00000132055382093429333240000005956603199255690888_" gradientUnits="userSpaceOnUse" x1="-6604.6509" y1="-41.2254" x2="-6604.6509" y2="-300.3351" gradientTransform="matrix(-0.9926 -0.1214 -0.1214 0.9926 -5927.5449 -8.1522)">
				<stop  offset="0" style="stop-color:#4A483A"/>
				<stop  offset="1" style="stop-color:#9EA43E"/>
			</linearGradient>
			
				<polygon style="clip-path:url(#SVGID_00000148662680332556570600000007318741748917329551_);fill:url(#SVGID_00000132055382093429333240000005956603199255690888_);" points="
				602.53,668.94 620.41,652.27 605.44,660.82 640.45,563.17 655.99,539.97 646.11,547.37 664.69,495.54 674.31,590.65 
				665.68,578.8 675.98,607.12 676.55,612.82 667.84,603.65 678.02,627.33 691.43,759.85 633.24,752.73 575.05,745.62 			"/>
			
				<linearGradient id="SVGID_00000145765163844843233090000011301384542750278058_" gradientUnits="userSpaceOnUse" x1="-6610.7236" y1="709.843" x2="-6610.7236" y2="502.9854" gradientTransform="matrix(-1 0 0 1 -6070.3262 0)">
				<stop  offset="0" style="stop-color:#4A483A"/>
				<stop  offset="1" style="stop-color:#9EA43E"/>
			</linearGradient>
			
				<polygon style="clip-path:url(#SVGID_00000148662680332556570600000007318741748917329551_);fill:url(#SVGID_00000145765163844843233090000011301384542750278058_);" points="
				507.94,646.42 520.5,631.48 509.46,639.7 527.74,558.93 537.81,539.03 530.7,545.86 540.4,502.99 557.24,577.42 549.25,568.87 
				560.15,590.32 561.16,594.78 553.37,588.35 563.73,606.13 587.2,709.84 540.4,709.84 493.59,709.84 			"/>
			
				<linearGradient id="SVGID_00000016783354442313378210000013573352980302839971_" gradientUnits="userSpaceOnUse" x1="-6729.0688" y1="519.2866" x2="-6677.1025" y2="749.7053" gradientTransform="matrix(-1 0 0 1 -6070.3262 0)">
				<stop  offset="0" style="stop-color:#8E8F8E"/>
				<stop  offset="1" style="stop-color:#232221"/>
			</linearGradient>
			
				<polygon style="clip-path:url(#SVGID_00000148662680332556570600000007318741748917329551_);fill:url(#SVGID_00000016783354442313378210000013573352980302839971_);" points="
				602.53,668.94 620.41,652.27 605.44,660.82 640.45,563.17 655.99,539.97 646.11,547.37 664.69,495.54 638.6,753.39 
				633.24,752.73 575.05,745.62 			"/>
			
				<linearGradient id="SVGID_00000046299976910536075860000008195535702390416520_" gradientUnits="userSpaceOnUse" x1="-6587.3208" y1="531.5314" x2="-6587.3208" y2="701.101" gradientTransform="matrix(-1 0 0 1 -6070.3262 0)">
				<stop  offset="0" style="stop-color:#8E8F8E"/>
				<stop  offset="1" style="stop-color:#232221"/>
			</linearGradient>
			
				<polygon style="clip-path:url(#SVGID_00000148662680332556570600000007318741748917329551_);fill:url(#SVGID_00000046299976910536075860000008195535702390416520_);" points="
				493.59,709.84 507.94,646.42 520.5,631.48 509.46,639.7 527.74,558.93 537.81,539.03 530.7,545.86 540.4,502.99 540.4,709.84 			
				"/>
			<path style="opacity:0.8;clip-path:url(#SVGID_00000148662680332556570600000007318741748917329551_);fill:#FFFFFF;" d="
				M1307.64,283.69h725.33l-108.68-11.34c0,0,9.2-48.6-54.18-61.56c-63.38-12.96-75.27,36.45-75.27,36.45s33.16-76.95-108.2-81.81
				c-141.36-4.86-127.5,79.37-127.5,79.37s6.5-18.02-39.34-20.35c-45.83-2.33-49.79,36.55-49.79,36.55L1307.64,283.69z"/>
			<path style="opacity:0.8;clip-path:url(#SVGID_00000148662680332556570600000007318741748917329551_);fill:#FFFFFF;" d="
				M386.53,215.85h463.23l-143.75-19.64c0,0,16.14-41.9-40.36-51.07c-56.5-9.17-72.64,41.66-72.64,41.66s-2.02-14.17-38.34-14.17
				c-36.32,0-46.41,28.81-46.41,28.81L386.53,215.85z"/>
			<g style="clip-path:url(#SVGID_00000148662680332556570600000007318741748917329551_);">
				
					<linearGradient id="SVGID_00000035516291621851246140000016672779493141864601_" gradientUnits="userSpaceOnUse" x1="-7903.7305" y1="1519.3146" x2="-7191.7114" y2="436.3833" gradientTransform="matrix(-1 0 0 1 -6070.3262 0)">
					<stop  offset="0" style="stop-color:#D1A977"/>
					<stop  offset="1" style="stop-color:#D9AD79"/>
				</linearGradient>
				<path style="fill:url(#SVGID_00000035516291621851246140000016672779493141864601_);" d="M756.85,923.62
					c0,0,90.36,17.45,180.1-19.21c8.01-3.28,19.47-24.01,25.97-30.38c11.85-11.62,4.16,8.87,17.72-1.26
					c101.79-76.08,307.8-153.19,432.91-171.21c270.92-38.99,342.47-132.16,447.36-194.35c25.49-15.11,115.34-41.91,115.33-27.39
					c-0.11,141.42-0.35,199.15-0.35,340.57c115.95,146.66,110.08,323.89,110.08,323.89l-110.08,5.67v25.63h-497.85l-633.77,32.63
					l2.16-32.63h-65.93L756.85,923.62z"/>
				<path class="st15" d="M756.85,923.62c0,0,90.36,17.45,180.1-19.21c8.01-3.28,19.47-24.01,25.97-30.38
					c11.85-11.62,4.16,8.87,17.72-1.26c101.79-76.08,307.8-153.19,432.91-171.21c270.92-38.99,342.47-132.16,447.36-194.35
					c25.49-15.11,115.34-41.91,115.33-27.39c-0.11,141.42-0.35,199.15-0.35,340.57c115.95,146.66,110.08,323.89,110.08,323.89
					l-110.08,5.67v25.63h-497.85l-633.77,32.63l2.16-32.63h-65.93L756.85,923.62z"/>
			</g>
			
				<linearGradient id="SVGID_00000018929666637602332500000000226838464920220827_" gradientUnits="userSpaceOnUse" x1="-6786.8501" y1="897.4393" x2="-7960.0513" y2="897.4393" gradientTransform="matrix(-1 0 0 1 -6070.3262 0)">
				<stop  offset="0" style="stop-color:#8E8F8E"/>
				<stop  offset="0.986" style="stop-color:#232221"/>
			</linearGradient>
			
				<path style="opacity:0.66;clip-path:url(#SVGID_00000148662680332556570600000007318741748917329551_);fill:url(#SVGID_00000018929666637602332500000000226838464920220827_);" d="
				M956.81,1060.72c13.78-28.21,34.31-55.87,60.39-81.17c21.83-18.74,8.66-49.44,12.28-73.68c4.29-28.8,27.49-38.91,51.92-49.51
				c36.76-15.93,69.98-38.68,107.13-53.87c38.45-15.72,80.33-21.18,121.56-22.97c49.57-2.15,99.33,0.82,148.78-3.27
				c130.5-10.77,247.19-72.24,339.52-163.43c63.16-62.38,129.51-108.57,218.09-126.56l-1.82,168.53c-0.29,1.29-0.3,2.37,0,3.21
				v282.05c115.95,146.66,110.08,323.89,110.08,323.89l-110.08,5.67v25.63h-497.85l-260.09,13.39
				C1175.35,1271.37,911.32,1153.87,956.81,1060.72z"/>
			<polygon style="clip-path:url(#SVGID_00000148662680332556570600000007318741748917329551_);fill:#583F3D;" points="1551.63,695 
				1529.9,695 1522.93,705.67 1522.93,712.64 1524.57,712.64 1527.03,706.9 1530.72,705.94 1531.54,712.64 1533.04,712.64 
				1534.27,705.26 1548.21,705.26 1549.3,712.64 1550.81,712.64 1551.63,705.26 1553.82,699.52 1555.59,706.35 1556.82,705.94 
				1555.04,696.37 			"/>
			<polygon style="clip-path:url(#SVGID_00000148662680332556570600000007318741748917329551_);fill:#583F3D;" points="
				1437.39,686.18 1459.11,686.18 1466.08,696.85 1466.08,703.82 1464.45,703.82 1461.98,698.08 1458.29,697.12 1457.47,703.82 
				1455.97,703.82 1454.74,696.44 1440.8,696.44 1439.71,703.82 1438.2,703.82 1437.39,696.44 1435.2,690.7 1433.42,697.53 
				1432.19,697.12 1433.97,687.56 			"/>
			<path style="clip-path:url(#SVGID_00000148662680332556570600000007318741748917329551_);fill:#808754;" d="M1484.15,652.66
				c0,0,19.48,29.01,7.76,33.32C1477.09,691.44,1484.15,652.66,1484.15,652.66z"/>
			<g style="clip-path:url(#SVGID_00000148662680332556570600000007318741748917329551_);">
				<path class="st19" d="M1251.24,725.56c0,0,40.04,60.03,15.81,68.87C1236.41,805.61,1251.24,725.56,1251.24,725.56z"/>
				<g>
					<path class="st20" d="M1267.53,808.58c-0.61,0-1.15-0.43-1.26-1.05L1254.4,745c-0.13-0.7,0.32-1.37,1.02-1.51
						c0.74-0.13,1.38,0.33,1.51,1.02l11.86,62.53c0.13,0.7-0.32,1.37-1.02,1.51C1267.69,808.57,1267.61,808.58,1267.53,808.58z"/>
				</g>
			</g>
			<g style="clip-path:url(#SVGID_00000148662680332556570600000007318741748917329551_);">
				<path class="st20" d="M1492.15,695.18c-0.31,0-0.59-0.22-0.65-0.54l-5.62-29.64c-0.07-0.36,0.17-0.7,0.53-0.77
					c0.36-0.03,0.71,0.17,0.78,0.53l5.62,29.64c0.07,0.36-0.17,0.7-0.53,0.77C1492.23,695.17,1492.19,695.18,1492.15,695.18z"/>
			</g>
			<g style="clip-path:url(#SVGID_00000148662680332556570600000007318741748917329551_);">
				<path class="st21" d="M1707.09,565.91c0,0,23.01,63.22-0.9,65.87C1675.98,635.14,1707.09,565.91,1707.09,565.91z"/>
				<g>
					<path class="st22" d="M1705.02,651.35c-0.96-0.02-1.71-0.79-1.69-1.72l1.21-68.23c0.02-0.93,0.93-1.7,1.72-1.66
						c0.93,0.02,1.68,0.79,1.66,1.72l-1.21,68.23C1706.69,650.61,1705.94,651.35,1705.02,651.35z"/>
				</g>
			</g>
			
				<linearGradient id="SVGID_00000087399525337366245110000013174721215146519199_" gradientUnits="userSpaceOnUse" x1="-7016.5557" y1="429.3735" x2="-6367.4082" y2="1316.2166" gradientTransform="matrix(-1 0 0 1 -6070.3262 0)">
				<stop  offset="0" style="stop-color:#96905D"/>
				<stop  offset="1" style="stop-color:#83863F"/>
			</linearGradient>
			
				<path style="clip-path:url(#SVGID_00000148662680332556570600000007318741748917329551_);fill:url(#SVGID_00000087399525337366245110000013174721215146519199_);" d="
				M-9.7,350.02c0,0,424.28,219.41,563.68,299.43c156.94,90.09,122.96,51.07,326.59,106.68
				c275.65,75.27,455.78,236.62,596.78,332.96H-38.62L-9.7,350.02z"/>
			
				<polygon style="opacity:0.78;clip-path:url(#SVGID_00000148662680332556570600000007318741748917329551_);fill:#232221;" points="
				785.05,765.89 665.74,769.68 595.8,755.09 671.22,746.33 			"/>
			<path style="clip-path:url(#SVGID_00000148662680332556570600000007318741748917329551_);fill:#624C41;" d="M943.8,757.91
				l0.86-4.28l9.3,2.79l0.61-3.05l4.68,0.94c0,0-0.38,1.35-0.96,3.41l80.7,24.21c0.9-2.47,1.5-4.12,1.54-4.33
				c0.2-1.01,5.38,2.69,5.38,2.69l-1.52,3.26l11.87,3.56l-1.23,6.15l-13.21-4.2l-4.26,9.12l8.96,3.42l-0.54,2.67l-9.66-3.45
				l-5.62,12.03l-3.01-0.61c0,0,2.21-5.88,4.79-12.8l-78.11-27.89c-1.81,6.42-3.45,12.25-3.51,12.54l-2.21-1.11l2.52-12.59
				l-9.2-3.29l1.01-5.06l9.16,3.49l0.94-4.71L943.8,757.91z M955.68,766.92l77.85,29.72c1.16-3.1,2.35-6.29,3.4-9.14l-79.89-25.39
				C956.61,763.62,956.15,765.24,955.68,766.92z"/>
			<path style="clip-path:url(#SVGID_00000148662680332556570600000007318741748917329551_);fill:#BEA37C;" d="M865.09,761.95
				c0,0,15.24,4.62,35.48,46.13c15.69,32.18,68.36,57.66,95.65,100.65c27.29,42.99,59.37,183.94,59.37,183.94l-113.94,1.37
				c0,0,37.51-148.46,19.77-180.53c-17.74-32.07-68.34-87.33-72.22-104.04c-5.7-24.58-19.57-39.74-35.36-47.22L865.09,761.95z"/>
			<polygon style="clip-path:url(#SVGID_00000148662680332556570600000007318741748917329551_);fill:#5C404C;" points="
				864.65,686.74 918.04,745.14 909.18,744.16 860.56,689.25 			"/>
			<polygon style="clip-path:url(#SVGID_00000148662680332556570600000007318741748917329551_);fill:#6C384A;" points="
				864.65,686.74 673.87,731.82 671.22,746.33 785.05,765.89 			"/>
			<polygon style="clip-path:url(#SVGID_00000148662680332556570600000007318741748917329551_);fill:#C8767D;" points="
				908.78,760.89 910.93,742.14 864.65,686.74 790.47,729.96 785.05,765.89 			"/>
			<polygon style="clip-path:url(#SVGID_00000148662680332556570600000007318741748917329551_);fill:#BFD4DC;" points="
				857.24,704.45 857.24,719.04 862.57,717.89 861.41,705.96 			"/>
			<polygon style="clip-path:url(#SVGID_00000148662680332556570600000007318741748917329551_);fill:#BFD4DC;" points="
				821.54,736.91 820.68,751.48 827.55,750.58 826.78,738.61 			"/>
			<polygon style="clip-path:url(#SVGID_00000148662680332556570600000007318741748917329551_);fill:#BFD4DC;" points="
				834.57,736.6 837.09,751.05 830.15,750.63 829.55,738.65 			"/>
			<polygon style="clip-path:url(#SVGID_00000148662680332556570600000007318741748917329551_);fill:#BFD4DC;" points="
				880.61,737.96 879.74,752.53 886.61,751.63 885.84,739.66 			"/>
			<polygon style="clip-path:url(#SVGID_00000148662680332556570600000007318741748917329551_);fill:#BFD4DC;" points="
				893.64,737.65 896.16,752.1 889.21,751.68 888.62,739.7 			"/>
			<path style="clip-path:url(#SVGID_00000148662680332556570600000007318741748917329551_);fill:#453037;" d="M854.24,763.09
				l1.78-25.97l8.12,0.32c0.37,6.11,2.69,24.89,2.72,25.14L854.24,763.09z"/>
			<polygon style="clip-path:url(#SVGID_00000148662680332556570600000007318741748917329551_);fill:#453037;" points="
				773.16,737.69 771.07,750.63 766.64,750.46 768.41,738.14 			"/>
			<polygon style="clip-path:url(#SVGID_00000148662680332556570600000007318741748917329551_);fill:#453037;" points="
				711.27,735.34 709.03,746.68 713.9,749.04 715.95,735.23 			"/>
			
				<linearGradient id="SVGID_00000080918924761283617900000015719561314793749940_" gradientUnits="userSpaceOnUse" x1="-6934.979" y1="712.8718" x2="-6739.3887" y2="712.8718" gradientTransform="matrix(-1 0 0 1 -6070.3262 0)">
				<stop  offset="0" style="stop-color:#232221"/>
				<stop  offset="0.986" style="stop-color:#232221"/>
			</linearGradient>
			
				<polygon style="opacity:0.65;clip-path:url(#SVGID_00000148662680332556570600000007318741748917329551_);fill:url(#SVGID_00000080918924761283617900000015719561314793749940_);" points="
				864.65,686.74 795.06,739 669.06,732.69 			"/>
			<polygon style="clip-path:url(#SVGID_00000148662680332556570600000007318741748917329551_);fill:#F8F5EB;" points="
				802.38,734.56 669.06,732.69 727.51,679.2 864.65,686.74 			"/>
			<polygon style="clip-path:url(#SVGID_00000148662680332556570600000007318741748917329551_);fill:#CBBFCE;" points="
				864.65,686.74 795.42,729.92 669.06,732.69 727.51,679.2 			"/>
			
				<linearGradient id="SVGID_00000176023084049522340610000014532727541638456243_" gradientUnits="userSpaceOnUse" x1="-7483.8813" y1="834.7547" x2="-5978.7358" y2="834.7547" gradientTransform="matrix(-1 0 0 1 -6070.3262 0)">
				<stop  offset="0" style="stop-color:#8E8F8E"/>
				<stop  offset="0.986" style="stop-color:#232221"/>
			</linearGradient>
			
				<path style="opacity:0.44;clip-path:url(#SVGID_00000148662680332556570600000007318741748917329551_);fill:url(#SVGID_00000176023084049522340610000014532727541638456243_);" d="
				M-91.59,1124.4l88.78-579.28c0,0,275.11,43.84,277.71,43.09c236.21,74.06,107.03,268.1,330.37,277
				c248.07,9.89,504.45-41.17,752.37,203.41c39.93,37.82,27.6,8.57,55.92,55.78H-91.59z"/>
			
				<linearGradient id="SVGID_00000037665268469049671540000009184231252953407364_" gradientUnits="userSpaceOnUse" x1="-6961.27" y1="1018.0384" x2="-6415.6782" y2="1018.0384" gradientTransform="matrix(-1 0 0 1 -6070.3262 0)">
				<stop  offset="0" style="stop-color:#483631"/>
				<stop  offset="0.986" style="stop-color:#3A2F2B"/>
			</linearGradient>
			
				<path style="clip-path:url(#SVGID_00000148662680332556570600000007318741748917329551_);fill:url(#SVGID_00000037665268469049671540000009184231252953407364_);" d="
				M349.85,1019.93l-4.5-19.87l44.93-5.81l-3.2-14.15l21.73-4.92c0,0,0.94,6.47,2.37,16.36l389.89-50.44
				c-0.85-12.22-1.47-20.39-1.69-21.37c-1.05-4.66,28.02,1.22,28.02,1.22l-0.28,16.78l57.35-7.42l6.47,28.53l-64.29,7.26
				l-0.79,46.99l44.7-2.48l2.82,12.42l-47.75,3.69l-1.04,61.95l-13.97,3.17c0,0-1.78-29.27-3.93-63.65l-385.85,29.81
				c4.5,30.82,8.61,58.77,8.92,60.14l-11.54-0.51l-13.23-58.4l-45.45,3.51l-5.32-23.48l45.67-2.53l-4.95-21.87L349.85,1019.93z
				 M417.6,1035.73l388.22-21.53c-0.97-15.44-1.98-31.25-2.9-45.41l-388.68,43.88C415.3,1019.91,416.43,1027.67,417.6,1035.73z"/>
			
				<linearGradient id="SVGID_00000124847742997241105830000003303661677620647075_" gradientUnits="userSpaceOnUse" x1="-7458.6411" y1="1168.1702" x2="-7458.6411" y2="672.7609" gradientTransform="matrix(-1 0 0 1 -6070.3262 0)">
				<stop  offset="0" style="stop-color:#4A483A"/>
				<stop  offset="1" style="stop-color:#9EA43E"/>
			</linearGradient>
			
				<path style="clip-path:url(#SVGID_00000148662680332556570600000007318741748917329551_);fill:url(#SVGID_00000124847742997241105830000003303661677620647075_);" d="
				M1474.98,1055.81l-27.65-31.15l24.06,15.31l-15.89-70.23l-36.44-49.27l33.11,34.56l-63.87-282.27l-17.1,75.55l17.1-13.47
				L1367.67,764L1345,864.19l27.33-21.07l-32.84,45.41l-3.69,16.33l36.53-22.36c0,0-27.13,36.4-44.52,57.67l-51.58,227.98h112.09
				h112.09L1474.98,1055.81z"/>
			
				<linearGradient id="SVGID_00000174602439769823806440000010254864177781959070_" gradientUnits="userSpaceOnUse" x1="-7853.7812" y1="1087.4436" x2="-7853.7812" y2="689.8824" gradientTransform="matrix(-1 0 0 1 -6070.3262 0)">
				<stop  offset="0" style="stop-color:#4A483A"/>
				<stop  offset="1" style="stop-color:#9EA43E"/>
			</linearGradient>
			
				<polygon style="clip-path:url(#SVGID_00000148662680332556570600000007318741748917329551_);fill:url(#SVGID_00000174602439769823806440000010254864177781959070_);" points="
				1766.86,763.23 1777.06,746.13 1768.94,754.03 1783.45,689.88 1810.19,808.03 1794.1,794.9 1815.37,830.93 1873.41,1087.44 
				1783.45,1087.44 1693.5,1087.44 			"/>
			
				<linearGradient id="SVGID_00000077298768206603169260000016032568850975257241_" gradientUnits="userSpaceOnUse" x1="-7585.2959" y1="1143.7566" x2="-7585.2959" y2="746.191" gradientTransform="matrix(-1 0 0 1 -6070.3262 0)">
				<stop  offset="0" style="stop-color:#4A483A"/>
				<stop  offset="1" style="stop-color:#9EA43E"/>
			</linearGradient>
			
				<polygon style="clip-path:url(#SVGID_00000148662680332556570600000007318741748917329551_);fill:url(#SVGID_00000077298768206603169260000016032568850975257241_);" points="
				1498.38,819.53 1508.57,802.44 1500.46,810.34 1514.97,746.19 1541.7,864.34 1525.61,851.21 1546.88,887.24 1604.92,1143.76 
				1514.97,1143.76 1425.02,1143.76 			"/>
			
				<linearGradient id="SVGID_00000168076707768942227820000018130342589922405001_" gradientUnits="userSpaceOnUse" x1="-7308.4463" y1="1289.5015" x2="-7308.4463" y2="839.5322" gradientTransform="matrix(-1 0 0 1 -6070.3262 0)">
				<stop  offset="0" style="stop-color:#4A483A"/>
				<stop  offset="1" style="stop-color:#9EA43E"/>
			</linearGradient>
			
				<polygon style="clip-path:url(#SVGID_00000148662680332556570600000007318741748917329551_);fill:url(#SVGID_00000168076707768942227820000018130342589922405001_);" points="
				1220.85,915.87 1238.12,879.86 1226.16,892.41 1238.12,839.53 1267.31,968.55 1252.89,954.35 1270.99,984.81 1339.93,1289.5 
				1238.12,1289.5 1136.31,1289.5 			"/>
			<path style="opacity:0.55;clip-path:url(#SVGID_00000148662680332556570600000007318741748917329551_);fill:#232221;" d="
				M948.64,783l-69.16,15.73l57.38,20.66l93.58-6.96l-126.39,13.51l-61.92-24.92L948.64,783z M910.03,821.39l18.01-1.34
				c0,0-58.61-19.13-58.61-19.13l-9.52,1.36L910.03,821.39z"/>
			
				<linearGradient id="SVGID_00000176737440334153671200000009641624109788160693_" gradientUnits="userSpaceOnUse" x1="-7514.6865" y1="664.0645" x2="-7514.6865" y2="1154.155" gradientTransform="matrix(-1 0 0 1 -6070.3262 0)">
				<stop  offset="0" style="stop-color:#989898"/>
				<stop  offset="0.986" style="stop-color:#343332"/>
			</linearGradient>
			
				<polygon style="opacity:0.66;clip-path:url(#SVGID_00000148662680332556570600000007318741748917329551_);fill:url(#SVGID_00000176737440334153671200000009641624109788160693_);" points="
				1452.18,955.03 1419.07,920.47 1455.51,969.73 1471.4,1039.97 1447.34,1024.66 1474.98,1055.81 1500.4,1168.17 1388.32,1168.17 
				1388.32,672.76 			"/>
			
				<linearGradient id="SVGID_00000161593917229795292070000007250694646699534230_" gradientUnits="userSpaceOnUse" x1="-7359.3516" y1="837.7278" x2="-7359.3516" y2="1276.6296" gradientTransform="matrix(-1 0 0 1 -6070.3262 0)">
				<stop  offset="0" style="stop-color:#989898"/>
				<stop  offset="0.986" style="stop-color:#343332"/>
			</linearGradient>
			
				<polygon style="opacity:0.66;clip-path:url(#SVGID_00000148662680332556570600000007318741748917329551_);fill:url(#SVGID_00000161593917229795292070000007250694646699534230_);" points="
				1238.12,879.86 1238.12,839.53 1267.31,968.55 1252.89,954.35 1270.99,984.81 1339.93,1289.5 1238.12,1289.5 1238.12,879.87 			
				"/>
			
				<linearGradient id="SVGID_00000102533179946719986610000011435089400850463362_" gradientUnits="userSpaceOnUse" x1="-7675.2471" y1="944.9738" x2="-7585.2939" y2="944.9738" gradientTransform="matrix(-1 0 0 1 -6070.3262 0)">
				<stop  offset="0" style="stop-color:#989898"/>
				<stop  offset="0.986" style="stop-color:#343332"/>
			</linearGradient>
			
				<polygon style="opacity:0.66;clip-path:url(#SVGID_00000148662680332556570600000007318741748917329551_);fill:url(#SVGID_00000102533179946719986610000011435089400850463362_);" points="
				1541.7,864.34 1525.61,851.21 1546.88,887.24 1604.92,1143.76 1514.97,1143.76 1514.97,746.19 			"/>
			
				<linearGradient id="SVGID_00000151535517720084643370000017103666822031224720_" gradientUnits="userSpaceOnUse" x1="-7898.7563" y1="700.7466" x2="-7898.7563" y2="1090.925" gradientTransform="matrix(-1 0 0 1 -6070.3262 0)">
				<stop  offset="0" style="stop-color:#989898"/>
				<stop  offset="1" style="stop-color:#343332"/>
			</linearGradient>
			
				<polygon style="opacity:0.66;clip-path:url(#SVGID_00000148662680332556570600000007318741748917329551_);fill:url(#SVGID_00000151535517720084643370000017103666822031224720_);" points="
				1810.19,808.03 1794.1,794.9 1815.37,830.93 1873.41,1087.44 1783.45,1087.44 1783.45,689.88 			"/>
			
				<linearGradient id="SVGID_00000180329190335083512070000013223197544584002213_" gradientUnits="userSpaceOnUse" x1="-7785.04" y1="1201.6949" x2="-7785.04" y2="804.1337" gradientTransform="matrix(-1 0 0 1 -6070.3262 0)">
				<stop  offset="0" style="stop-color:#4A483A"/>
				<stop  offset="1" style="stop-color:#9EA43E"/>
			</linearGradient>
			
				<polygon style="clip-path:url(#SVGID_00000148662680332556570600000007318741748917329551_);fill:url(#SVGID_00000180329190335083512070000013223197544584002213_);" points="
				1698.12,877.48 1708.32,860.38 1700.2,868.28 1714.71,804.13 1741.44,922.28 1725.35,909.15 1746.62,945.18 1804.67,1201.69 
				1714.71,1201.69 1624.76,1201.69 			"/>
			
				<linearGradient id="SVGID_00000011736465310995715370000008214119842591574184_" gradientUnits="userSpaceOnUse" x1="-7830.0146" y1="814.9978" x2="-7830.0146" y2="1205.1764" gradientTransform="matrix(-1 0 0 1 -6070.3262 0)">
				<stop  offset="0" style="stop-color:#989898"/>
				<stop  offset="1" style="stop-color:#343332"/>
			</linearGradient>
			
				<polygon style="opacity:0.66;clip-path:url(#SVGID_00000148662680332556570600000007318741748917329551_);fill:url(#SVGID_00000011736465310995715370000008214119842591574184_);" points="
				1741.44,922.28 1725.35,909.15 1746.62,945.18 1804.67,1201.69 1714.71,1201.69 1714.71,804.13 			"/>
			
				<linearGradient id="SVGID_00000181063897499379297080000012006024770452776891_" gradientUnits="userSpaceOnUse" x1="-7958.1577" y1="1110.1155" x2="-7958.1577" y2="446.8627" gradientTransform="matrix(-1 0 0 1 -6070.3262 0)">
				<stop  offset="0" style="stop-color:#4A483A"/>
				<stop  offset="1" style="stop-color:#9EA43E"/>
			</linearGradient>
			
				<path style="clip-path:url(#SVGID_00000148662680332556570600000007318741748917329551_);fill:url(#SVGID_00000181063897499379297080000012006024770452776891_);" d="
				M1974.5,959.68l-27.65-41.7l24.06,20.5l-15.89-94.03l-36.44-65.96l33.11,46.28l-63.87-377.9l-17.09,101.14l17.09-18.03
				l-20.64,39.03l-22.67,134.14l27.33-28.21l-32.84,60.8l-3.7,21.87l36.53-29.93c0,0-27.13,48.73-44.52,77.22l-51.58,305.22h112.09
				h112.09L1974.5,959.68z"/>
			
				<linearGradient id="SVGID_00000018227706537769139720000008291937634315734954_" gradientUnits="userSpaceOnUse" x1="-8014.2012" y1="462.2705" x2="-8014.2012" y2="1107.5858" gradientTransform="matrix(-1 0 0 1 -6070.3262 0)">
				<stop  offset="0" style="stop-color:#989898"/>
				<stop  offset="1" style="stop-color:#343332"/>
			</linearGradient>
			
				<polygon style="opacity:0.66;clip-path:url(#SVGID_00000148662680332556570600000007318741748917329551_);fill:url(#SVGID_00000018227706537769139720000008291937634315734954_);" points="
				1887.83,446.86 1951.7,824.77 1918.59,778.49 1955.03,844.45 1970.91,938.48 1946.85,917.98 1974.5,959.68 1999.92,1110.12 
				1887.83,1110.12 			"/>
			
				<linearGradient id="SVGID_00000029741243245613121920000004260168348020379815_" gradientUnits="userSpaceOnUse" x1="-7705.1616" y1="1113.9248" x2="-7705.1616" y2="614.5454" gradientTransform="matrix(-1 0 0 1 -6070.3262 0)">
				<stop  offset="0" style="stop-color:#4A483A"/>
				<stop  offset="1" style="stop-color:#9EA43E"/>
			</linearGradient>
			
				<polygon style="clip-path:url(#SVGID_00000148662680332556570600000007318741748917329551_);fill:url(#SVGID_00000029741243245613121920000004260168348020379815_);" points="
				1617.56,699.27 1634.84,659.31 1622.87,673.23 1634.84,614.55 1664.03,757.73 1649.6,741.97 1667.71,775.77 1736.65,1113.92 
				1634.84,1113.92 1533.03,1113.92 			"/>
			
				<linearGradient id="SVGID_00000088851006579907123160000016297486341989834679_" gradientUnits="userSpaceOnUse" x1="-7756.0669" y1="628.192" x2="-7756.0669" y2="1118.2979" gradientTransform="matrix(-1 0 0 1 -6070.3262 0)">
				<stop  offset="0" style="stop-color:#989898"/>
				<stop  offset="0.986" style="stop-color:#343332"/>
			</linearGradient>
			
				<polygon style="opacity:0.66;clip-path:url(#SVGID_00000148662680332556570600000007318741748917329551_);fill:url(#SVGID_00000088851006579907123160000016297486341989834679_);" points="
				1634.84,659.31 1634.84,614.55 1664.03,757.73 1649.6,741.97 1667.71,775.77 1736.65,1113.92 1634.84,1113.92 1634.84,659.31 			
				"/>
		</g>
	</g>
	<path style="clip-path:url(#SVGID_00000114792326821764069510000009728386279622701203_);fill:#FFFFFF;" d="M1495.48,0H0v684.73
		l106.79,53.98c9.34,5.56,19.06,10.48,29.09,14.7c72.55,30.5,123.2,22.03,177.79,1.61c54.59-20.42,1138.96-574.91,1138.96-574.91
		h102.57L1495.48,0z"/>
	<g style="clip-path:url(#SVGID_00000114792326821764069510000009728386279622701203_);">
		<rect x="1314.57" y="-10.18" class="st53" width="628.09" height="190.29"/>
	</g>
	<path style="clip-path:url(#SVGID_00000114792326821764069510000009728386279622701203_);fill:#FFFFFF;" d="M1486.8,76.18
		c-36.95-28.55-93.89-24.59-126.54,8.79l-218.28,223.21c-32.65,33.38-25.33,43.34,16.27,22.12L1377,218.7
		c41.6-21.22,113.58-38.58,159.97-38.58s54.11-23.36,17.16-51.91L1486.8,76.18z"/>
	<path style="opacity:0.8;clip-path:url(#SVGID_00000114792326821764069510000009728386279622701203_);fill:#D4E2E2;" d="
		M1074.6,189.32h254.96l-38.2-3.99c0,0,3.24-17.08-19.04-21.64c-22.28-4.56-26.46,12.81-26.46,12.81s11.66-27.05-38.03-28.76
		c-49.69-1.71-44.81,27.9-44.81,27.9s2.28-6.33-13.83-7.15c-16.11-0.82-17.5,12.85-17.5,12.85L1074.6,189.32z"/>
	<path style="opacity:0.4;clip-path:url(#SVGID_00000114792326821764069510000009728386279622701203_);fill:#D4E2E2;" d="
		M927.55,270.73h198.54l-61.61-8.42c0,0,6.92-17.96-17.3-21.89c-24.22-3.93-31.14,17.86-31.14,17.86s-0.86-6.07-16.43-6.07
		c-15.57,0-19.89,12.35-19.89,12.35L927.55,270.73z"/>
	<polygon style="clip-path:url(#SVGID_00000114792326821764069510000009728386279622701203_);fill:#453037;" points="811.88,686.02 
		798.7,686.02 802.49,671.9 811.88,669.14 	"/>
</g>
<g>
	
		<linearGradient id="SVGID_00000060747631089485128850000002969588664734413447_" gradientUnits="userSpaceOnUse" x1="-6603.3647" y1="-41.4901" x2="-6603.3647" y2="-300.6029" gradientTransform="matrix(-0.9926 -0.1214 -0.1214 0.9926 -5927.5449 -8.1525)">
		<stop  offset="0" style="stop-color:#4A483A"/>
		<stop  offset="1" style="stop-color:#9EA43E"/>
	</linearGradient>
	<polygon style="fill:url(#SVGID_00000060747631089485128850000002969588664734413447_);" points="611.72,642.1 679.22,642.1 
		677.7,627.02 667.52,603.34 676.23,612.51 675.66,606.81 665.36,578.49 673.99,590.34 664.37,495.23 645.79,547.06 655.66,539.66 
		640.12,562.87 	"/>
	
		<linearGradient id="SVGID_00000036933624917636027180000016662213585566610865_" gradientUnits="userSpaceOnUse" x1="-6728.708" y1="518.9702" x2="-6676.7412" y2="749.3907" gradientTransform="matrix(-1 0 0 1 -6070.3262 0)">
		<stop  offset="0" style="stop-color:#8E8F8E"/>
		<stop  offset="1" style="stop-color:#232221"/>
	</linearGradient>
	<polygon style="fill:url(#SVGID_00000036933624917636027180000016662213585566610865_);" points="611.72,642.1 649.51,642.1 
		664.37,495.23 645.79,547.06 655.66,539.66 640.12,562.87 	"/>
</g>
</svg>
